<?xml version="1.0" encoding="UTF-8"?>
<svg width="90px" height="54px" viewBox="0 0 90 54" version="1.1" xmlns="http://www.w3.org/2000/svg" xmlns:xlink="http://www.w3.org/1999/xlink">
    <!-- Generator: Sketch 51 (57462) - http://www.bohemiancoding.com/sketch -->
    <title>graphical-active</title>
    <desc>Created with Sketch.</desc>
    <defs></defs>
    <g id="Page-1" stroke="none" stroke-width="1" fill="none" fill-rule="evenodd">
        <g id="Desktop-HD-patch-patch-+-potenciomentri" transform="translate(-334.000000, -180.000000)">
            <g id="graphical-active" transform="translate(334.000000, 180.000000)">
                <g id="Group">
                    <rect id="Rectangle-3-Copy-3" fill="#000000" x="27" y="35" width="14" height="14"></rect>
                    <rect id="Rectangle-3-Copy-4" fill="#000000" x="71" y="35" width="14" height="14"></rect>
                    <g id="Group-3">
                        <rect id="Rectangle-2" fill="#000000" x="0" y="0" width="90" height="2"></rect>
                        <rect id="Rectangle-2-Copy-9" fill="#000000" x="0" y="30" width="90" height="2"></rect>
                        <rect id="Rectangle-2-Copy-4" fill="#000000" x="0" y="22" width="90" height="2"></rect>
                        <rect id="Rectangle-2-Copy-10" fill="#000000" x="0" y="52" width="90" height="2"></rect>
                        <rect id="Rectangle-2-Copy-3" fill="#000000" transform="translate(1.000000, 27.000000) rotate(-90.000000) translate(-1.000000, -27.000000) " x="-26" y="26" width="54" height="2"></rect>
                        <rect id="Rectangle-2-Copy-5" fill="#000000" transform="translate(23.000000, 27.000000) rotate(-90.000000) translate(-23.000000, -27.000000) " x="-4" y="26" width="54" height="2"></rect>
                        <rect id="Rectangle-2-Copy-6" fill="#000000" transform="translate(45.000000, 27.000000) rotate(-90.000000) translate(-45.000000, -27.000000) " x="18" y="26" width="54" height="2"></rect>
                        <rect id="Rectangle-2-Copy-7" fill="#000000" transform="translate(67.000000, 27.000000) rotate(-90.000000) translate(-67.000000, -27.000000) " x="40" y="26" width="54" height="2"></rect>
                        <rect id="Rectangle-2-Copy-8" fill="#000000" transform="translate(89.000000, 27.000000) rotate(-90.000000) translate(-89.000000, -27.000000) " x="62" y="26" width="54" height="2"></rect>
                        <rect id="Rectangle-3" fill="#4A90E2" x="2" y="32" width="20" height="20"></rect>
                    </g>
                </g>
            </g>
        </g>
    </g>
</svg>