<?xml version="1.0" encoding="UTF-8"?>
<svg width="90px" height="54px" viewBox="0 0 90 54" version="1.1" xmlns="http://www.w3.org/2000/svg" xmlns:xlink="http://www.w3.org/1999/xlink">
    <!-- Generator: Sketch 51 (57462) - http://www.bohemiancoding.com/sketch -->
    <title>graphical</title>
    <desc>Created with Sketch.</desc>
    <defs></defs>
    <g id="Page-1" stroke="none" stroke-width="1" fill="none" fill-rule="evenodd">
        <g id="Desktop-HD-patch" transform="translate(-334.000000, -182.000000)" fill="#FFFFFF">
            <g id="graphical" transform="translate(334.000000, 182.000000)">
                <g id="Group">
                    <rect id="Rectangle-2" x="0" y="0" width="90" height="2"></rect>
                    <rect id="Rectangle-2-Copy-9" x="0" y="30" width="90" height="2"></rect>
                    <rect id="Rectangle-2-Copy-4" x="0" y="22" width="90" height="2"></rect>
                    <rect id="Rectangle-2-Copy-10" x="0" y="52" width="90" height="2"></rect>
                    <rect id="Rectangle-2-Copy-3" transform="translate(1.000000, 27.000000) rotate(-90.000000) translate(-1.000000, -27.000000) " x="-26" y="26" width="54" height="2"></rect>
                    <rect id="Rectangle-2-Copy-5" transform="translate(23.000000, 27.000000) rotate(-90.000000) translate(-23.000000, -27.000000) " x="-4" y="26" width="54" height="2"></rect>
                    <rect id="Rectangle-2-Copy-6" transform="translate(45.000000, 27.000000) rotate(-90.000000) translate(-45.000000, -27.000000) " x="18" y="26" width="54" height="2"></rect>
                    <rect id="Rectangle-2-Copy-7" transform="translate(67.000000, 27.000000) rotate(-90.000000) translate(-67.000000, -27.000000) " x="40" y="26" width="54" height="2"></rect>
                    <rect id="Rectangle-2-Copy-8" transform="translate(89.000000, 27.000000) rotate(-90.000000) translate(-89.000000, -27.000000) " x="62" y="26" width="54" height="2"></rect>
                    <rect id="Rectangle-3" x="5" y="35" width="14" height="14"></rect>
                    <rect id="Rectangle-3-Copy-3" x="27" y="35" width="14" height="14"></rect>
                    <rect id="Rectangle-3-Copy-4" x="71" y="35" width="14" height="14"></rect>
                </g>
            </g>
        </g>
    </g>
</svg>