<?xml version="1.0" encoding="UTF-8"?>
<svg width="119px" height="73px" viewBox="0 0 119 73" version="1.1" xmlns="http://www.w3.org/2000/svg" xmlns:xlink="http://www.w3.org/1999/xlink">
    <!-- Generator: Sketch 51 (57462) - http://www.bohemiancoding.com/sketch -->
    <title>synthi-logo</title>
    <desc>Created with Sketch.</desc>
    <defs></defs>
    <g id="synthi-logo" stroke="none" stroke-width="1" fill="none" fill-rule="evenodd">
        <g id="Group-2" fill="#4A90E2">
            <rect id="Rectangle-2" x="0" y="0" width="119" height="3"></rect>
            <rect id="Rectangle-2-Copy-9" x="0" y="41" width="119" height="3"></rect>
            <rect id="Rectangle-2-Copy-4" x="0" y="29" width="119" height="3"></rect>
            <rect id="Rectangle-2-Copy-10" x="0" y="70" width="119" height="3"></rect>
            <rect id="Rectangle-2-Copy-3" transform="translate(1.500000, 36.500000) rotate(-90.000000) translate(-1.500000, -36.500000) " x="-35" y="35" width="73" height="3"></rect>
            <rect id="Rectangle-2-Copy-5" transform="translate(30.500000, 36.500000) rotate(-90.000000) translate(-30.500000, -36.500000) " x="-6" y="35" width="73" height="3"></rect>
            <rect id="Rectangle-2-Copy-6" transform="translate(59.500000, 36.500000) rotate(-90.000000) translate(-59.500000, -36.500000) " x="23" y="35" width="73" height="3"></rect>
            <rect id="Rectangle-2-Copy-7" transform="translate(88.500000, 36.500000) rotate(-90.000000) translate(-88.500000, -36.500000) " x="52" y="35" width="73" height="3"></rect>
            <rect id="Rectangle-2-Copy-8" transform="translate(117.500000, 36.500000) rotate(-90.000000) translate(-117.500000, -36.500000) " x="81" y="35" width="73" height="3"></rect>
            <circle id="Oval-3" cx="7" cy="7" r="2"></circle>
            <circle id="Oval-3-Copy-16" cx="6" cy="47" r="1"></circle>
            <circle id="Oval-3-Copy-84" cx="64" cy="47" r="1"></circle>
            <circle id="Oval-3-Copy-22" cx="6" cy="51" r="1"></circle>
            <circle id="Oval-3-Copy-85" cx="64" cy="51" r="1"></circle>
            <circle id="Oval-3-Copy-17" cx="10" cy="47" r="1"></circle>
            <circle id="Oval-3-Copy-86" cx="68" cy="47" r="1"></circle>
            <circle id="Oval-3-Copy-23" cx="10" cy="51" r="1"></circle>
            <circle id="Oval-3-Copy-87" cx="68" cy="51" r="1"></circle>
            <circle id="Oval-3-Copy-18" cx="14" cy="47" r="1"></circle>
            <circle id="Oval-3-Copy-88" cx="72" cy="47" r="1"></circle>
            <circle id="Oval-3-Copy-56" cx="14" cy="51" r="1"></circle>
            <circle id="Oval-3-Copy-89" cx="72" cy="51" r="1"></circle>
            <circle id="Oval-3-Copy-19" cx="18" cy="47" r="1"></circle>
            <circle id="Oval-3-Copy-90" cx="76" cy="47" r="1"></circle>
            <circle id="Oval-3-Copy-57" cx="18" cy="51" r="1"></circle>
            <circle id="Oval-3-Copy-91" cx="76" cy="51" r="1"></circle>
            <circle id="Oval-3-Copy-20" cx="22" cy="47" r="1"></circle>
            <circle id="Oval-3-Copy-92" cx="80" cy="47" r="1"></circle>
            <circle id="Oval-3-Copy-58" cx="22" cy="51" r="1"></circle>
            <circle id="Oval-3-Copy-93" cx="80" cy="51" r="1"></circle>
            <circle id="Oval-3-Copy-21" cx="26" cy="47" r="1"></circle>
            <circle id="Oval-3-Copy-94" cx="84" cy="47" r="1"></circle>
            <circle id="Oval-3-Copy-59" cx="26" cy="51" r="1"></circle>
            <circle id="Oval-3-Copy-95" cx="84" cy="51" r="1"></circle>
            <circle id="Oval-3-Copy-65" cx="6" cy="55" r="1"></circle>
            <circle id="Oval-3-Copy-96" cx="64" cy="55" r="1"></circle>
            <circle id="Oval-3-Copy-64" cx="10" cy="55" r="1"></circle>
            <circle id="Oval-3-Copy-97" cx="68" cy="55" r="1"></circle>
            <circle id="Oval-3-Copy-63" cx="14" cy="55" r="1"></circle>
            <circle id="Oval-3-Copy-98" cx="72" cy="55" r="1"></circle>
            <circle id="Oval-3-Copy-62" cx="18" cy="55" r="1"></circle>
            <circle id="Oval-3-Copy-99" cx="76" cy="55" r="1"></circle>
            <circle id="Oval-3-Copy-61" cx="22" cy="55" r="1"></circle>
            <circle id="Oval-3-Copy-100" cx="80" cy="55" r="1"></circle>
            <circle id="Oval-3-Copy-60" cx="26" cy="55" r="1"></circle>
            <circle id="Oval-3-Copy-101" cx="84" cy="55" r="1"></circle>
            <circle id="Oval-3-Copy-71" cx="6" cy="59" r="1"></circle>
            <circle id="Oval-3-Copy-102" cx="64" cy="59" r="1"></circle>
            <circle id="Oval-3-Copy-70" cx="10" cy="59" r="1"></circle>
            <circle id="Oval-3-Copy-103" cx="68" cy="59" r="1"></circle>
            <circle id="Oval-3-Copy-69" cx="14" cy="59" r="1"></circle>
            <circle id="Oval-3-Copy-104" cx="72" cy="59" r="1"></circle>
            <circle id="Oval-3-Copy-68" cx="18" cy="59" r="1"></circle>
            <circle id="Oval-3-Copy-105" cx="76" cy="59" r="1"></circle>
            <circle id="Oval-3-Copy-67" cx="22" cy="59" r="1"></circle>
            <circle id="Oval-3-Copy-106" cx="80" cy="59" r="1"></circle>
            <circle id="Oval-3-Copy-66" cx="26" cy="59" r="1"></circle>
            <circle id="Oval-3-Copy-107" cx="84" cy="59" r="1"></circle>
            <circle id="Oval-3-Copy-77" cx="6" cy="63" r="1"></circle>
            <circle id="Oval-3-Copy-108" cx="64" cy="63" r="1"></circle>
            <circle id="Oval-3-Copy-76" cx="10" cy="63" r="1"></circle>
            <circle id="Oval-3-Copy-109" cx="68" cy="63" r="1"></circle>
            <circle id="Oval-3-Copy-75" cx="14" cy="63" r="1"></circle>
            <circle id="Oval-3-Copy-110" cx="72" cy="63" r="1"></circle>
            <circle id="Oval-3-Copy-74" cx="18" cy="63" r="1"></circle>
            <circle id="Oval-3-Copy-111" cx="76" cy="63" r="1"></circle>
            <circle id="Oval-3-Copy-73" cx="22" cy="63" r="1"></circle>
            <circle id="Oval-3-Copy-112" cx="80" cy="63" r="1"></circle>
            <circle id="Oval-3-Copy-72" cx="26" cy="63" r="1"></circle>
            <circle id="Oval-3-Copy-113" cx="84" cy="63" r="1"></circle>
            <circle id="Oval-3-Copy-83" cx="6" cy="67" r="1"></circle>
            <circle id="Oval-3-Copy-114" cx="64" cy="67" r="1"></circle>
            <circle id="Oval-3-Copy-82" cx="10" cy="67" r="1"></circle>
            <circle id="Oval-3-Copy-115" cx="68" cy="67" r="1"></circle>
            <circle id="Oval-3-Copy-81" cx="14" cy="67" r="1"></circle>
            <circle id="Oval-3-Copy-116" cx="72" cy="67" r="1"></circle>
            <circle id="Oval-3-Copy-80" cx="18" cy="67" r="1"></circle>
            <circle id="Oval-3-Copy-117" cx="76" cy="67" r="1"></circle>
            <circle id="Oval-3-Copy-79" cx="22" cy="67" r="1"></circle>
            <circle id="Oval-3-Copy-118" cx="80" cy="67" r="1"></circle>
            <circle id="Oval-3-Copy-78" cx="26" cy="67" r="1"></circle>
            <circle id="Oval-3-Copy-119" cx="84" cy="67" r="1"></circle>
            <circle id="Oval-3-Copy-4" cx="7" cy="13" r="2"></circle>
            <circle id="Oval-3-Copy" cx="13" cy="7" r="2"></circle>
            <circle id="Oval-3-Copy-5" cx="13" cy="13" r="2"></circle>
            <circle id="Oval-3-Copy-2" cx="19" cy="7" r="2"></circle>
            <circle id="Oval-3-Copy-6" cx="19" cy="13" r="2"></circle>
            <circle id="Oval-3-Copy-3" cx="25" cy="7" r="2"></circle>
            <circle id="Oval-3-Copy-7" cx="25" cy="13" r="2"></circle>
            <circle id="Oval-3-Copy-11" cx="7" cy="19" r="2"></circle>
            <circle id="Oval-3-Copy-24" cx="36" cy="19" r="2"></circle>
            <circle id="Oval-3-Copy-10" cx="13" cy="19" r="2"></circle>
            <circle id="Oval-3-Copy-25" cx="42" cy="19" r="2"></circle>
            <circle id="Oval-3-Copy-9" cx="19" cy="19" r="2"></circle>
            <circle id="Oval-3-Copy-26" cx="48" cy="19" r="2"></circle>
            <circle id="Oval-3-Copy-8" cx="25" cy="19" r="2"></circle>
            <circle id="Oval-3-Copy-27" cx="54" cy="19" r="2"></circle>
            <circle id="Oval-3-Copy-15" cx="7" cy="25" r="2"></circle>
            <circle id="Oval-3-Copy-28" cx="36" cy="25" r="2"></circle>
            <circle id="Oval-3-Copy-14" cx="13" cy="25" r="2"></circle>
            <circle id="Oval-3-Copy-29" cx="42" cy="25" r="2"></circle>
            <circle id="Oval-3-Copy-13" cx="19" cy="25" r="2"></circle>
            <circle id="Oval-3-Copy-30" cx="48" cy="25" r="2"></circle>
            <circle id="Oval-3-Copy-12" cx="25" cy="25" r="2"></circle>
            <circle id="Oval-3-Copy-31" cx="54" cy="25" r="2"></circle>
            <circle id="Oval-3-Copy-47" cx="65" cy="7" r="2"></circle>
            <circle id="Oval-3-Copy-46" cx="65" cy="13" r="2"></circle>
            <circle id="Oval-3-Copy-45" cx="71" cy="7" r="2"></circle>
            <circle id="Oval-3-Copy-44" cx="71" cy="13" r="2"></circle>
            <circle id="Oval-3-Copy-43" cx="77" cy="7" r="2"></circle>
            <circle id="Oval-3-Copy-42" cx="77" cy="13" r="2"></circle>
            <circle id="Oval-3-Copy-41" cx="83" cy="7" r="2"></circle>
            <circle id="Oval-3-Copy-40" cx="83" cy="13" r="2"></circle>
            <circle id="Oval-3-Copy-39" cx="65" cy="19" r="2"></circle>
            <circle id="Oval-3-Copy-38" cx="71" cy="19" r="2"></circle>
            <circle id="Oval-3-Copy-37" cx="77" cy="19" r="2"></circle>
            <circle id="Oval-3-Copy-36" cx="83" cy="19" r="2"></circle>
            <circle id="Oval-3-Copy-35" cx="65" cy="25" r="2"></circle>
            <circle id="Oval-3-Copy-34" cx="71" cy="25" r="2"></circle>
            <circle id="Oval-3-Copy-33" cx="77" cy="25" r="2"></circle>
            <circle id="Oval-3-Copy-32" cx="83" cy="25" r="2"></circle>
            <circle id="Oval-3-Copy-55" cx="94" cy="19" r="2"></circle>
            <circle id="Oval-3-Copy-120" cx="94" cy="54" r="2"></circle>
            <circle id="Oval-3-Copy-54" cx="100" cy="19" r="2"></circle>
            <circle id="Oval-3-Copy-121" cx="100" cy="54" r="2"></circle>
            <circle id="Oval-3-Copy-53" cx="106" cy="19" r="2"></circle>
            <circle id="Oval-3-Copy-122" cx="106" cy="54" r="2"></circle>
            <circle id="Oval-3-Copy-52" cx="112" cy="19" r="2"></circle>
            <circle id="Oval-3-Copy-123" cx="112" cy="54" r="2"></circle>
            <circle id="Oval-3-Copy-51" cx="94" cy="25" r="2"></circle>
            <circle id="Oval-3-Copy-124" cx="94" cy="60" r="2"></circle>
            <circle id="Oval-3-Copy-50" cx="100" cy="25" r="2"></circle>
            <circle id="Oval-3-Copy-125" cx="100" cy="60" r="2"></circle>
            <circle id="Oval-3-Copy-49" cx="106" cy="25" r="2"></circle>
            <circle id="Oval-3-Copy-126" cx="106" cy="60" r="2"></circle>
            <circle id="Oval-3-Copy-48" cx="112" cy="25" r="2"></circle>
            <circle id="Oval-3-Copy-127" cx="112" cy="60" r="2"></circle>
        </g>
    </g>
</svg>
