<?xml version="1.0" encoding="UTF-8"?>
<svg width="123px" height="25px" viewBox="0 0 123 25" version="1.1" xmlns="http://www.w3.org/2000/svg" xmlns:xlink="http://www.w3.org/1999/xlink">
    <!-- Generator: Sketch 51 (57462) - http://www.bohemiancoding.com/sketch -->
    <title>wave-textual</title>
    <desc>Created with Sketch.</desc>
    <defs></defs>
    <g id="Page-1" stroke="none" stroke-width="1" fill="none" fill-rule="evenodd">
        <g id="Desktop-HD-patch" transform="translate(-30.000000, -186.000000)" fill="#4A90E2">
            <g id="wave-textual" transform="translate(30.000000, 186.000000)">
                <g id="Group-7">
                    <g id="Group-5" transform="translate(73.000000, 0.000000)">
                        <polygon id="Fill-106-Copy" points="0 2 50 2 50 0 0 0"></polygon>
                        <polygon id="Fill-110-Copy" points="0 9 50 9 50 7 0 7"></polygon>
                        <polygon id="Fill-113-Copy" points="0 17 50 17 50 15 0 15"></polygon>
                        <polygon id="Fill-116-Copy" points="0 25 50 25 50 23 0 23"></polygon>
                    </g>
                    <g id="Group-3" transform="translate(0.000000, 4.000000)">
                        <polygon id="Fill-86-Copy-3" points="0 11 2 11 2 7 0 7"></polygon>
                        <polygon id="Fill-86-Copy-4" points="4 14 6 14 6 4 4 4"></polygon>
                        <polygon id="Fill-86-Copy-5" points="8 17 10 17 10 1 8 1"></polygon>
                        <polygon id="Fill-86-Copy-6" points="12 12 14 12 14 6 12 6"></polygon>
                        <polygon id="Fill-86-Copy-7" points="16 14 18 14 18 4 16 4"></polygon>
                        <polygon id="Fill-86-Copy-8" points="20 11 22 11 22 7 20 7"></polygon>
                        <polygon id="Fill-86-Copy-9" points="24 16 26 16 26 2 24 2"></polygon>
                        <polygon id="Fill-86-Copy-10" points="28 15 30 15 30 3 28 3"></polygon>
                        <polygon id="Fill-86-Copy-11" points="32 12 34 12 34 6 32 6"></polygon>
                        <polygon id="Fill-86-Copy-12" points="36 18 38 18 38 0 36 0"></polygon>
                        <polygon id="Fill-86-Copy-13" points="40 17 42 17 42 1 40 1"></polygon>
                        <polygon id="Fill-86-Copy-14" points="44 11 46 11 46 7 44 7"></polygon>
                        <polygon id="Fill-86-Copy-15" points="48 13 50 13 50 5 48 5"></polygon>
                        <polygon id="Fill-86-Copy-16" points="52 11 54 11 54 7 52 7"></polygon>
                    </g>
                </g>
            </g>
        </g>
    </g>
</svg>